<svg xmlns="http://www.w3.org/2000/svg" viewBox="0 0 1080 1044.82"><defs><style>.cls-1{fill:#706f6f;}.cls-2{fill:#f39200;}.cls-3{fill:#662483;}</style></defs><title>equidade</title><g id="Camada_2" data-name="Camada 2"><g id="Camada_1-2" data-name="Camada 1"><path class="cls-1" d="M.53,655.1H88.34C177.41,655.1,239,716.23,239,796v18.68c0,79.76-61.55,141.71-150.62,141.71H.53Zm49.8,45.34V911h38c59.52,0,98.38-40.08,98.38-95.55V796.81c0-55.47-38.86-96.37-98.38-96.37Z"/><path class="cls-1" d="M560.9,411h87.81c89.08,0,150.62,61.14,150.62,140.9V814.67c0,79.76-61.54,141.71-150.62,141.71H560.9Zm49.8,45.35V911h38c59.52,0,98.39-40.08,98.39-95.55V552.66c0-55.47-38.87-96.36-98.39-96.36Z"/><polygon class="cls-1" points="987.33 129.24 1077.97 129.24 1077.97 83.2 844.58 83.2 844.58 129.24 937.25 129.24 938.26 129.24 938.26 558.04 935.22 558.04 844.58 558.04 844.58 604.07 1077.97 604.07 1077.97 558.04 985.3 558.04 984.29 558.04 984.29 129.24 987.33 129.24"/><path class="cls-1" d="M805.89,83.44h-49.8V246.67a71.47,71.47,0,0,1-142.93,0h.07c0-.38-.07-.74-.07-1.13V83.44h-49.8V246.67a121.27,121.27,0,0,0,242.53,0h-.09c0-.46.09-.89.09-1.36Z"/><path class="cls-1" d="M395,542.94A121.26,121.26,0,0,0,273.74,664.2c0,.83,0,1.6,0,2.44V955.9h49.8V664.2a71.47,71.47,0,0,1,142.93,0c0,.69,0,1.34,0,2V955.9h49.79V664.2A121.26,121.26,0,0,0,395,542.94Z"/><path class="cls-1" d="M516.26,197.82a121.26,121.26,0,0,0-242.52,0V381.05a121.26,121.26,0,1,0,242.52,0h-.08c0-.52.08-1,.08-1.52ZM395,452.52a71.46,71.46,0,0,1-71.46-71.47h.07c0-.43-.07-.83-.07-1.27v-182h0a71.47,71.47,0,0,1,142.93,0h0V381.05A71.46,71.46,0,0,1,395,452.52Z"/><polygon class="cls-1" points="49.78 559.15 49.78 126.93 140.09 126.93 233.92 126.93 233.92 82.52 0.53 82.52 0.53 126.93 0.53 559.15 0.53 603.57 235.95 603.57 235.95 559.15 49.78 559.15"/><polygon class="cls-1" points="893.83 911.48 893.83 700.75 984.13 700.75 1077.97 700.75 1077.97 656.34 844.58 656.34 844.58 700.44 844.58 700.75 844.58 911.48 844.58 911.83 844.58 955.9 1080 955.9 1080 911.48 893.83 911.48"/><rect class="cls-2" width="1077.97" height="41.68"/><rect class="cls-2" y="1003.13" width="1077.97" height="41.68"/><rect class="cls-3" x="323.54" y="739.48" width="142.93" height="44.43"/><rect class="cls-3" x="395" y="336.41" width="168.36" height="44.64"/><rect class="cls-3" x="893.83" y="783.9" width="142.86" height="44.43"/><rect class="cls-3" x="49.78" y="336.52" width="142.86" height="44.43"/></g></g></svg>