<?xml version="1.0" encoding="utf-8"?>
<!-- Generator: Adobe Illustrator 24.1.1, SVG Export Plug-In . SVG Version: 6.00 Build 0)  -->
<svg version="1.1" id="Layer_1" xmlns="http://www.w3.org/2000/svg" xmlns:xlink="http://www.w3.org/1999/xlink" x="0px" y="0px"
	 viewBox="0 0 286.8 97.5" style="enable-background:new 0 0 286.8 97.5;" xml:space="preserve">
<style type="text/css">
	.st0{fill:#00C7C6;}
	.st1{fill:#157EBB;}
</style>
<g>
	<g id="XMLID_353_">
		<g id="XMLID_360_">
			<polygon class="st0" points="52.7,49.2 52.7,77.3 63.6,77.3 63.6,15.6 33.5,56.9 3.5,15.6 3.5,77.3 14.4,77.3 14.4,49.2 
				33.5,75.6 			"/>
		</g>
		<g id="XMLID_359_">
			<polygon class="st0" points="104.7,26.4 104.7,15.6 68.4,15.6 68.4,77.3 104.7,77.3 104.7,66.4 79.3,66.4 79.3,51.9 98.3,51.9 
				98.3,41 79.3,41 79.3,26.4 			"/>
		</g>
		<g id="XMLID_356_">
			<path class="st0" d="M143,68.2c6-6,9.1-13.3,9.1-21.8c0-8.4-3.1-15.8-9.1-21.8c-6-6-13.3-9.1-21.8-9.1h-11.8v61.7h11.8
				C129.6,77.3,137,74.2,143,68.2z M120.3,26.4h0.9c5.5,0,10.2,2,14.1,5.9c3.9,3.9,5.9,8.7,5.9,14.1c0,5.5-2,10.2-5.9,14.1
				c-3.9,3.9-8.6,5.8-14.1,5.8h-0.9V26.4z"/>
		</g>
		<g id="XMLID_355_">
			<rect x="155.4" y="15.6" class="st0" width="10.9" height="61.7"/>
		</g>
		<g id="XMLID_354_">
			<path class="st0" d="M212.8,18c-3.7-1.6-7.7-2.4-12-2.4c-8.5,0-15.8,3.1-21.8,9.1c-6,6-9.1,13.3-9.1,21.8c0,8.5,3,15.8,9.1,21.8
				c6,6,13.3,9.1,21.8,9.1c4.2,0,8.2-0.8,12-2.4c3.4-1.5,6.5-3.5,9.2-6l-7.7-7.7c-3.8,3.5-8.3,5.2-13.5,5.2c-5.5,0-10.2-2-14.1-5.8
				c-3.9-3.9-5.8-8.6-5.8-14.1c0-5.5,2-10.2,5.8-14.1c3.9-3.9,8.6-5.9,14.1-5.9c5.1,0,9.7,1.8,13.5,5.2L222,24
				C219.3,21.5,216.2,19.5,212.8,18z"/>
		</g>
	</g>
	<g id="XMLID_340_">
		<g id="XMLID_352_">
			<path class="st1" d="M3.2,94.4l1.1-1.5c0.7,0.8,1.9,1.5,3.4,1.5c1.5,0,2.1-0.8,2.1-1.5c0-2.2-6.2-0.9-6.2-4.8
				c0-1.8,1.5-3.1,3.9-3.1c1.7,0,3,0.5,4,1.5l-1.1,1.4c-0.9-0.9-2-1.2-3.1-1.2c-1.1,0-1.8,0.5-1.8,1.3c0,2,6.2,0.8,6.2,4.8
				c0,1.8-1.3,3.3-4.1,3.3C5.6,96.1,4.1,95.4,3.2,94.4z"/>
			<path class="st1" d="M16.6,95.9V85.2H24v1.7h-5.5v2.8h5.3v1.7h-5.3v3H24v1.7H16.6z"/>
			<path class="st1" d="M29.1,91.7v-6.5H31v6.4c0,1.7,0.9,2.8,2.7,2.8s2.7-1.1,2.7-2.8v-6.4h1.9v6.5c0,2.6-1.5,4.4-4.6,4.4
				C30.6,96.1,29.1,94.3,29.1,91.7z"/>
			<path class="st1" d="M50.8,90.6c0-3.3,2.5-5.5,5.6-5.5c2.2,0,3.5,1.1,4.3,2.4l-1.6,0.8c-0.5-0.9-1.6-1.6-2.7-1.6
				c-2.1,0-3.7,1.6-3.7,3.9c0,2.2,1.6,3.9,3.7,3.9c1.1,0,2.2-0.7,2.7-1.6l1.6,0.8c-0.8,1.3-2.2,2.4-4.3,2.4
				C53.2,96.1,50.8,93.9,50.8,90.6z"/>
			<path class="st1" d="M64.9,90.6c0-3.2,2.3-5.5,5.5-5.5c3.2,0,5.5,2.3,5.5,5.5s-2.3,5.5-5.5,5.5C67.2,96.1,64.9,93.8,64.9,90.6z
				 M73.9,90.6c0-2.2-1.4-3.9-3.5-3.9c-2.2,0-3.5,1.7-3.5,3.9c0,2.2,1.4,3.9,3.5,3.9C72.5,94.4,73.9,92.8,73.9,90.6z"/>
			<path class="st1" d="M88.3,95.9l-5.6-7.7v7.7h-1.9V85.2h1.9l5.5,7.4v-7.4h1.9v10.7H88.3z"/>
			<path class="st1" d="M95,94.4l1.1-1.5c0.7,0.8,1.9,1.5,3.4,1.5c1.5,0,2.1-0.8,2.1-1.5c0-2.2-6.2-0.9-6.2-4.8
				c0-1.8,1.5-3.1,3.9-3.1c1.7,0,3,0.5,4,1.5l-1.1,1.4c-0.9-0.9-2-1.2-3.1-1.2c-1.1,0-1.8,0.5-1.8,1.3c0,2,6.2,0.8,6.2,4.8
				c0,1.8-1.3,3.3-4.1,3.3C97.4,96.1,95.9,95.4,95,94.4z"/>
			<path class="st1" d="M108.4,91.7v-6.5h1.9v6.4c0,1.7,0.9,2.8,2.7,2.8s2.7-1.1,2.7-2.8v-6.4h1.9v6.5c0,2.6-1.5,4.4-4.6,4.4
				C109.9,96.1,108.4,94.3,108.4,91.7z"/>
			<path class="st1" d="M123.1,95.9V85.2h1.9v9.1h4.7v1.7H123.1z"/>
			<path class="st1" d="M135.5,95.9v-9.1h-3.2v-1.7h8.4v1.7h-3.2v9.1H135.5z"/>
			<path class="st1" d="M144.5,90.6c0-3.2,2.3-5.5,5.5-5.5c3.2,0,5.5,2.3,5.5,5.5s-2.3,5.5-5.5,5.5
				C146.8,96.1,144.5,93.8,144.5,90.6z M153.5,90.6c0-2.2-1.4-3.9-3.5-3.9c-2.2,0-3.5,1.7-3.5,3.9c0,2.2,1.4,3.9,3.5,3.9
				C152.1,94.4,153.5,92.8,153.5,90.6z M150,84.2h-1.2l2.2-2.3h1.6L150,84.2z"/>
			<path class="st1" d="M166.6,95.9l-2.4-4h-1.9v4h-1.9V85.2h4.7c2.1,0,3.5,1.4,3.5,3.4c0,1.9-1.3,2.9-2.6,3.1l2.6,4.2H166.6z
				 M166.8,88.5c0-1-0.8-1.7-1.8-1.7h-2.6v3.4h2.6C166,90.3,166.8,89.6,166.8,88.5z"/>
			<path class="st1" d="M173.8,95.9V85.2h1.9v10.7H173.8z"/>
			<path class="st1" d="M180.7,90.6c0-3.2,2.3-5.5,5.5-5.5c3.2,0,5.5,2.3,5.5,5.5s-2.3,5.5-5.5,5.5C183,96.1,180.7,93.8,180.7,90.6z
				 M189.7,90.6c0-2.2-1.4-3.9-3.5-3.9c-2.2,0-3.5,1.7-3.5,3.9c0,2.2,1.4,3.9,3.5,3.9C188.3,94.4,189.7,92.8,189.7,90.6z"/>
			<path class="st1" d="M207.1,95.9l-4.2-10.7h2.1l3.2,8.7l3.2-8.7h2.1l-4.2,10.7H207.1z"/>
			<path class="st1" d="M218,95.9V85.2h1.9v10.7H218z"/>
			<path class="st1" d="M231.5,95.9l-2.4-4h-1.9v4h-1.9V85.2h4.7c2.1,0,3.5,1.4,3.5,3.4c0,1.9-1.3,2.9-2.6,3.1l2.6,4.2H231.5z
				 M231.7,88.5c0-1-0.8-1.7-1.8-1.7h-2.6v3.4h2.6C230.9,90.3,231.7,89.6,231.7,88.5z"/>
			<path class="st1" d="M241.1,95.9v-9.1h-3.2v-1.7h8.4v1.7H243v9.1H241.1z"/>
			<path class="st1" d="M251,91.7v-6.5h1.9v6.4c0,1.7,0.9,2.8,2.7,2.8c1.8,0,2.7-1.1,2.7-2.8v-6.4h1.9v6.5c0,2.6-1.5,4.4-4.6,4.4
				C252.6,96.1,251,94.3,251,91.7z"/>
			<path class="st1" d="M272.8,95.9l-0.8-2.1h-4.9l-0.8,2.1h-2.1l4.2-10.7h2.3l4.2,10.7H272.8z M269.6,87.1l-1.9,5.1h3.9L269.6,87.1
				z"/>
			<path class="st1" d="M279.2,95.9V85.2h1.9v9.1h4.7v1.7H279.2z"/>
		</g>
		<g id="XMLID_351_">
			<polyline class="st1" points="84.1,10 90,10 94.9,2.1 87.4,2.1 			"/>
		</g>
		<g id="XMLID_341_">
			<g id="XMLID_342_">
				<path class="st1" d="M282.1,45.6c-0.3-16.7-14-30.1-30.7-30.1c-16.9,0-30.7,13.8-30.7,30.7s13.8,30.7,30.7,30.7
					c7,0,13.4-2.3,18.5-6.3v-1.2V62V46.2h-6.1v7.6h-6.3l6.7-19.1h-6.5L251,53.8h-8.5c0.4-0.3,0.7-0.7,1.1-1
					c3.7-3.3,8.3-7.3,8.3-12.9c0-5-4.1-9.1-9.1-9.1c-2.6,0-5,1-6.8,2.7c-1.7,1.7-2.7,4-2.7,6.3h6.1c0-1.4,1.3-2.8,3.3-2.8
					c1.4,0,2.9,1.2,2.9,2.9c0,2.8-3.3,5.7-6.2,8.3c-3.1,2.7-6,5.3-6,8.6V60h30.3v7.2c-3.6,2.2-7.9,3.4-12.4,3.4
					C238,70.6,227,59.6,227,46.2c0-13.5,10.9-24.4,24.4-24.4c13.3,0,24.1,10.6,24.4,23.8h-3l6,9.7l6-9.7H282.1z"/>
			</g>
			<g id="XMLID_157_">
				<path class="st1" d="M285.4,65.5c0,3.6-2.9,6.5-6.5,6.5c-3.6,0-6.5-2.9-6.5-6.5c0-3.6,2.9-6.5,6.5-6.5
					C282.5,58.9,285.4,61.9,285.4,65.5z M279.1,63.3h-1V65h-1.2v-1.6h-1v4.3h1v-1.8h1.2v1.8h1V63.3z M282.1,66.3
					c0-1.3-1.6-1.3-1.6-1.9c0-0.1,0.1-0.3,0.3-0.3c0.3,0,0.6,0.2,0.9,0.4l0.4-0.8c-0.4-0.3-0.7-0.5-1.2-0.5c-0.9,0-1.3,0.5-1.3,1.2
					c0,1.4,1.6,1.3,1.6,1.9c0,0.2-0.1,0.3-0.3,0.3c-0.3,0-0.6-0.2-0.9-0.4l-0.4,0.8c0.4,0.3,0.7,0.5,1.2,0.5
					C281.6,67.6,282.1,67.2,282.1,66.3z"/>
			</g>
		</g>
	</g>
</g>
</svg>
